<?xml version="1.0" encoding="UTF-8"?>
<svg viewBox="0 0 744.09448819 1052.3622047" xmlns="http://www.w3.org/2000/svg">
 <path transform="matrix(.86284 0 0 .86284 -135.32 5.9494)" d="m310.66 132.06c-1.827 2.0443-22.21-18.383-24.893-17.378s-6.7378 33.642-9.5753 34.012-7.7155-33.089-10.481-33.888-18.779 19.342-21.18 17.829 5.6997-26.098 4.3649-28.671-31.863-3.7803-32.492-6.6501 27.669-10.399 27.902-13.242-18.998-18.902-17.897-21.394 26.855 8.1774 28.594 5.9916-3.3918-29.683-0.75169-30.507 18.503 18.485 21.322 18.393 11.303-24.288 14.183-23.722 1.4433 25.668 3.6723 27.344 24.272-6.2829 25.907-4.0049-12.639 24.445-11.78 27.073 27.012 5.1355 26.655 7.8525-32.699 3.8756-34.047 6.5072 12.324 32.411 10.497 34.455z" fill="#f5ff12"/>
 <path transform="matrix(.84556 0 0 .75685 -29.001 20.954)" d="m194.52 77.284a39.901 37.407 0 1 1 -79.802 0 39.901 37.407 0 1 1 79.802 0z" fill="#fff" stroke="#f5ff12" stroke-miterlimit=".5" stroke-width="7.6924"/>
 <g transform="translate(-1.5892 16.557)">
  <path transform="matrix(.77838 0 0 .77838 7.6556 -2.9429)" d="m310.66 132.06c-1.827 2.0443-22.21-18.383-24.893-17.378s-6.7378 33.642-9.5753 34.012-7.7155-33.089-10.481-33.888-18.779 19.342-21.18 17.829 5.6997-26.098 4.3649-28.671-31.863-3.7803-32.492-6.6501 27.669-10.399 27.902-13.242-18.998-18.902-17.897-21.394 26.855 8.1774 28.594 5.9916-3.3918-29.683-0.75169-30.507 18.503 18.485 21.322 18.393 11.303-24.288 14.183-23.722 1.4433 25.668 3.6723 27.344 24.272-6.2829 25.907-4.0049-12.639 24.445-11.78 27.073 27.012 5.1355 26.655 7.8525-32.699 3.8756-34.047 6.5072 12.324 32.411 10.497 34.455z" fill="#f5ff12"/>
  <path transform="matrix(.7628 0 0 .68278 103.56 10.593)" d="m194.52 77.284a39.901 37.407 0 1 1 -79.802 0 39.901 37.407 0 1 1 79.802 0z" fill="#fff" stroke="#f5ff12" stroke-miterlimit=".5" stroke-width="8.527"/>
  <path d="m268.24 54.99c-5.7966 0-10.761 3.0212-13.196 7.3608-0.97268-0.54303-2.0559-0.87552-3.2009-0.87552-3.4625 0-6.3429 2.7852-7.2335 6.5664-1.52-0.60082-3.2744-0.9728-5.1623-0.9728-5.6637 0-10.262 3.1028-10.262 6.9231 0 3.4484 3.7666 6.2851 8.6614 6.8096-0.21938 0.37222-0.39227 0.7442-0.39227 1.1349 0 3.6577 10.025 6.6312 22.375 6.6312s22.375-2.9736 22.375-6.6312c0-0.2461-0.16266-0.47422-0.25106-0.71338 0.54094 0.13452 1.086 0.27563 1.6789 0.27563 3.3038 0 5.9782-2.2463 5.9782-5.0099s-2.6744-4.9937-5.9782-4.9937c-0.40487 0-0.76304 0.13036-1.1454 0.19456 0.33436-1.105 0.56487-2.238 0.56487-3.4372 0-7.3153-6.6313-13.262-14.812-13.262z" fill="#fff" stroke="#6778e9" stroke-linecap="round" stroke-linejoin="round" stroke-miterlimit=".5" stroke-width="6.154"/>
 </g>
 <g transform="translate(-7.9254 19.206)">
  <path transform="matrix(.46778 0 0 .46778 349.69 17.168)" d="m310.66 132.06c-1.827 2.0443-22.21-18.383-24.893-17.378s-6.7378 33.642-9.5753 34.012-7.7155-33.089-10.481-33.888-18.779 19.342-21.18 17.829 5.6997-26.098 4.3649-28.671-31.863-3.7803-32.492-6.6501 27.669-10.399 27.902-13.242-18.998-18.902-17.897-21.394 26.855 8.1774 28.594 5.9916-3.3918-29.683-0.75169-30.507 18.503 18.485 21.322 18.393 11.303-24.288 14.183-23.722 1.4433 25.668 3.6723 27.344 24.272-6.2829 25.907-4.0049-12.639 24.445-11.78 27.073 27.012 5.1355 26.655 7.8525-32.699 3.8756-34.047 6.5072 12.324 32.411 10.497 34.455z" fill="#f5ff12"/>
  <path transform="matrix(.45842 0 0 .41033 407.33 25.303)" d="m194.52 77.284a39.901 37.407 0 1 1 -79.802 0 39.901 37.407 0 1 1 79.802 0z" fill="#fff" stroke="#f5ff12" stroke-miterlimit=".5" stroke-width="13.291"/>
  <path d="m512.49 36.237c-9.7653 0-18.128 5.0897-22.231 12.4-1.6386-0.91482-3.4636-1.4749-5.3925-1.4749-5.8332 0-10.686 4.6921-12.186 11.062-2.5608-1.0122-5.5163-1.6388-8.6967-1.6388-9.5414 0-17.288 5.2272-17.288 11.663 0 5.8094 6.3454 10.588 14.591 11.472-0.36958 0.62706-0.66085 1.2537-0.66085 1.912 0 6.1619 16.889 11.171 37.695 11.171s37.695-5.0094 37.695-11.171c0-0.41459-0.274-0.79889-0.42293-1.2018 0.91129 0.22662 1.8295 0.46433 2.8284 0.46433 5.5658 0 10.071-3.7843 10.071-8.44s-4.5054-8.4127-10.071-8.4127c-0.68208 0-1.2855 0.21962-1.9297 0.32777 0.56329-1.8616 0.95161-3.7704 0.95161-5.7905 0-12.324-11.171-22.343-24.954-22.343z" fill="#fff" stroke="#6798e9" stroke-linecap="round" stroke-linejoin="round" stroke-miterlimit=".5" stroke-width="6.154"/>
  <path d="m535.68 60.932c-5.7966 0-10.761 3.0212-13.196 7.3608-0.97268-0.54303-2.0559-0.87551-3.2009-0.87551-3.4625 0-6.3429 2.7852-7.2335 6.5664-1.52-0.60082-3.2744-0.9728-5.1623-0.9728-5.6637 0-10.262 3.1028-10.262 6.9231 0 3.4484 3.7666 6.2852 8.6614 6.8096-0.21938 0.37222-0.39227 0.7442-0.39227 1.1349 0 3.6577 10.025 6.6312 22.375 6.6312s22.375-2.9736 22.375-6.6312c0-0.2461-0.16266-0.47422-0.25106-0.71338 0.54094 0.13452 1.086 0.27562 1.6789 0.27562 3.3038 0 5.9782-2.2463 5.9782-5.0099s-2.6744-4.9937-5.9782-4.9937c-0.40487 0-0.76304 0.13036-1.1454 0.19456 0.33436-1.105 0.56487-2.238 0.56487-3.4372 0-7.3153-6.6313-13.262-14.812-13.262z" fill="#386195" stroke="#386195" stroke-linecap="round" stroke-linejoin="round" stroke-miterlimit=".5" stroke-width="6.154"/>
 </g>
 <g transform="translate(-4.8067 21.687)">
  <path d="m679.99 63.08c-1.2956 0.01313 0.51411-0.47803-2.7884-0.40815-1.4953 0.03164-3.7548 0.63454-5.6532 1.2663-1.9473 0.64809-5.301 1.9282-7.5453 2.4948-4.5976 1.1608-2.0678 0.61023-8.9322 1.6953-7.1152 1.1247-8.7189 1.2703-10.303 1.1982-1.5162-0.06898-5.2672 0.39453-8.7929-0.0778-3.1598-0.42332-4.3712-0.10644-5.1017 0.39862s-1.1588 1.4204-1.1168 2.387 0.54742 1.8302 1.3181 2.2521c0.71853 0.43392 1.815 1.1077 3.6384 1.7199 4.6468 1.5602 11.484 2.6336 19.072 2.6336s14.425-1.0734 19.072-2.6336c1.9404-0.6515 3.1664-1.3744 3.9237-1.8543 0.64863-0.40456 1.0896-1.1321 1.189-1.9618 0.21318-1.8332 1.3234-3.3453 2.8774-3.9236 1.1791-0.35977 1.9156-1.6833 1.6916-3.0401s-1.3272-2.2278-2.5477-2.1465z" fill="#fff"/>
  <path d="m629.77 31.37c-8.9464 0-16.608 4.6629-20.367 11.361-1.5012-0.83811-3.1731-1.3513-4.9403-1.3513-5.344 0-9.7896 4.2987-11.164 10.134-2.346-0.9273-5.0537-1.5014-7.9674-1.5014-8.7413 0-15.838 4.7889-15.838 10.685 0 5.3222 5.8133 9.7004 13.368 10.51-0.33859 0.57448-0.60543 1.1486-0.60543 1.7516 0 5.6452 15.473 10.235 34.534 10.235s34.534-4.5894 34.534-10.235c0-0.37982-0.25102-0.7319-0.38746-1.101 0.83487 0.20762 1.6761 0.42539 2.5912 0.42539 5.0991 0 9.2267-3.467 9.2267-7.7322s-4.1276-7.7072-9.2267-7.7072c-0.62489 0-1.1777 0.2012-1.7679 0.30028 0.51606-1.7055 0.87181-3.4542 0.87181-5.305 0-11.29-10.235-20.469-22.861-20.469z" fill="#fff" stroke="#6798e9" stroke-linecap="round" stroke-linejoin="round" stroke-miterlimit=".5" stroke-width="6.154"/>
  <path d="m658.91 33.007c-8.2055 0-15.232 4.6726-18.68 11.384-1.3769-0.83986-2.9103-1.3541-4.5312-1.3541-4.9015 0-8.9789 4.3077-10.24 10.156-2.1518-0.92925-4.6352-1.5046-7.3076-1.5046-8.0174 0-14.526 4.7989-14.526 10.707 0 5.3334 5.3318 9.7208 12.261 10.532-0.31054 0.57569-0.55528 1.151-0.55528 1.7553 0 5.657 14.191 10.256 31.674 10.256s31.674-4.599 31.674-10.256c0-0.38062-0.23026-0.73345-0.3554-1.1033 0.76575 0.20804 1.5373 0.42628 2.3766 0.42628 4.6768 0 8.4626-3.4742 8.4626-7.7484s-3.7858-7.7234-8.4626-7.7234c-0.57313 0-1.0801 0.20162-1.6214 0.30092 0.47331-1.709 0.79962-3.4614 0.79962-5.3161 0-11.314-9.3871-20.512-20.968-20.512z" fill="#6798e9" stroke="#6798e9" stroke-linecap="round" stroke-linejoin="round" stroke-miterlimit=".5" stroke-width="6.154"/>
  <path d="m625.66 67.907c-4.5698 0-8.4832 2.3278-10.403 5.6715-0.76682-0.4184-1.6208-0.67458-2.5235-0.67458-2.7297 0-5.0005 2.146-5.7026 5.0594-1.1983-0.46293-2.5814-0.74954-4.0697-0.74954-4.465 0-8.09 2.3907-8.09 5.3342 0 2.657 2.9694 4.8427 6.8282 5.2468-0.17295 0.2868-0.30926 0.5734-0.30926 0.87446 0 2.8182 7.9034 5.1093 17.64 5.1093s17.64-2.2911 17.64-5.1093c0-0.18961-0.12823-0.36538-0.19792-0.54966 0.42645 0.10366 0.85614 0.21237 1.3236 0.21237 2.6046 0 4.7129-1.7308 4.7129-3.8601s-2.1084-3.8476-4.7129-3.8476c-0.3192 0-0.60155 0.10044-0.90301 0.1499 0.26359-0.85141 0.44532-1.7244 0.44532-2.6484 0-5.6364-5.2278-10.219-11.677-10.219z" fill="#386195" stroke="#386195" stroke-linecap="round" stroke-linejoin="round" stroke-miterlimit=".5" stroke-width="6.154"/>
 </g>
 <g transform="translate(.5123 22.882)" stroke="#6798e9">
  <path d="m245.04 147.27c-9.7653 0-18.128 5.0897-22.231 12.4-1.6386-0.91482-3.4636-1.4749-5.3925-1.4749-5.8332 0-10.686 4.6921-12.186 11.062-2.5608-1.0122-5.5163-1.6388-8.6967-1.6388-9.5414 0-17.288 5.2272-17.288 11.663 0 5.8094 6.3454 10.588 14.591 11.472-0.36958 0.62706-0.66085 1.2537-0.66085 1.912 0 6.1619 16.889 11.171 37.695 11.171s37.695-5.0094 37.695-11.171c0-0.41459-0.274-0.79889-0.42293-1.2018 0.91129 0.22662 1.8295 0.46433 2.8284 0.46433 5.5658 0 10.071-3.7843 10.071-8.44s-4.5054-8.4127-10.071-8.4127c-0.68208 0-1.2855 0.21962-1.9297 0.32777 0.56329-1.8616 0.95161-3.7704 0.95161-5.7905 0-12.324-11.171-22.343-24.954-22.343z" fill="#fff" stroke-linecap="round" stroke-linejoin="round" stroke-miterlimit=".5" stroke-width="6.154"/>
  <path d="m208.33 221.08c-8.2505 7.27 1.4368 13.469 5.1203 3.4862l2.8325-9.2602-7.9529 5.774z" fill="#6798e9" stroke-miterlimit="3.2" stroke-width="4"/>
  <path d="m229.2 221.85c-8.2505 7.27 1.4368 13.469 5.1203 3.4862l2.8325-9.2602-7.9529 5.774z" fill="#6798e9" stroke-miterlimit="3.2" stroke-width="4"/>
 </g>
 <path transform="matrix(.64604 0 0 .64604 166.1 23.892)" d="m310.66 132.06c-1.827 2.0443-22.21-18.383-24.893-17.378s-6.7378 33.642-9.5753 34.012-7.7155-33.089-10.481-33.888-18.779 19.342-21.18 17.829 5.6997-26.098 4.3649-28.671-31.863-3.7803-32.492-6.6501 27.669-10.399 27.902-13.242-18.998-18.902-17.897-21.394 26.855 8.1774 28.594 5.9916-3.3918-29.683-0.75169-30.507 18.503 18.485 21.322 18.393 11.303-24.288 14.183-23.722 1.4433 25.668 3.6723 27.344 24.272-6.2829 25.907-4.0049-12.639 24.445-11.78 27.073 27.012 5.1355 26.655 7.8525-32.699 3.8756-34.047 6.5072 12.324 32.411 10.497 34.455z" fill="#f5ff12"/>
 <path transform="matrix(.6331 0 0 .56669 245.7 35.126)" d="m194.52 77.284a39.901 37.407 0 1 1 -79.802 0 39.901 37.407 0 1 1 79.802 0z" fill="#fff" stroke="#f5ff12" stroke-miterlimit=".5" stroke-width="10.274"/>
 <path transform="translate(271.24 -81.184)" d="m110.53 144.97c-9.7653 0-18.147 5.0642-22.25 12.375-1.6386-0.91483-3.4461-1.4688-5.375-1.4688-5.8332 0-10.687 4.6925-12.188 11.062-2.5608-1.0122-5.5383-1.625-8.7188-1.625-9.5414 0-17.281 5.2205-17.281 11.656 0 5.8094 6.3477 10.585 14.594 11.469-0.36958 0.62706-0.65625 1.248-0.65625 1.9062 0 6.1619 16.882 11.188 37.688 11.188s37.688-5.0256 37.688-11.188c0-0.41459-0.25732-0.78459-0.40625-1.1875 0.91129 0.22662 1.8136 0.46875 2.8125 0.46875 5.5658 1e-5 10.094-3.7818 10.094-8.4375s-4.5279-8.4375-10.094-8.4375c-0.68208 0-1.2621 0.2356-1.9062 0.34375 0.56329-1.8616 0.9375-3.7611 0.9375-5.7812 0-12.324-11.155-22.344-24.938-22.344z" fill="#fff" stroke="#6798e9" stroke-linecap="round" stroke-linejoin="round" stroke-miterlimit=".5" stroke-width="6.154"/>
 <g transform="translate(-2.4761 19.309)" stroke="#6798e9">
  <path d="m378.31 207.24c15.431-1.4 26.665-5.6589 26.665-10.684 0-0.41459-0.274-0.79889-0.42293-1.2018 0.9113 0.22661 1.8295 0.46433 2.8284 0.46433 5.5658 0 10.071-3.7843 10.071-8.44s-4.5054-8.4127-10.071-8.4127c-0.68208 0-1.2855 0.21962-1.9297 0.32777 0.56328-1.8616 0.95161-3.7704 0.95161-5.7905 0-12.324-11.171-22.343-24.954-22.343h-1e-5c-9.7652 0-18.128 5.0897-22.231 12.4-1.6386-0.91482-3.4636-1.4749-5.3925-1.4749-5.8332-1e-5 -10.686 4.6921-12.186 11.062-2.5608-1.0122-5.5163-1.6388-8.6967-1.6388-9.5414 0-17.288 5.2272-17.288 11.663 0 5.8094 6.3454 10.588 14.591 11.472-0.36958 0.62705-0.66085 1.2537-0.66085 1.912 1e-5 4.244 8.0118 7.9414 19.797 9.8318" fill="none" stroke-linecap="round" stroke-linejoin="round" stroke-miterlimit=".5" stroke-width="6.154"/>
  <path d="m338.14 223.91c-8.2505 7.27 1.4368 13.469 5.1203 3.4862l2.8325-9.2602-7.9529 5.774z" fill="#6798e9" stroke-miterlimit="3.2" stroke-width="4"/>
  <path d="m367.18 225.11c-8.2505 7.27 1.4368 13.469 5.1203 3.4862l2.8325-9.2602-7.9529 5.774z" fill="#6798e9" stroke-miterlimit="3.2" stroke-width="4"/>
  <path d="m360.42 209.77c-8.2505 7.27 1.4368 13.469 5.1203 3.4862l2.8325-9.2602-7.9529 5.774z" fill="#6798e9" stroke-miterlimit="3.2" stroke-width="4"/>
  <path d="m378.31 207.24c15.431-1.4 26.665-5.6589 26.665-10.684 0-0.41459-0.274-0.79889-0.42293-1.2018 0.9113 0.22661 1.8295 0.46433 2.8284 0.46433 5.5658 0 10.071-3.7843 10.071-8.44s-4.5054-8.4127-10.071-8.4127c-0.68208 0-1.2855 0.21962-1.9297 0.32777 0.56328-1.8616 0.95161-3.7704 0.95161-5.7905 0-12.324-11.171-22.343-24.954-22.343h-1e-5c-9.7652 0-18.128 5.0897-22.231 12.4-1.6386-0.91482-3.4636-1.4749-5.3925-1.4749-5.8332-1e-5 -10.686 4.6921-12.186 11.062-2.5608-1.0122-5.5163-1.6388-8.6967-1.6388-9.5414 0-17.288 5.2272-17.288 11.663 0 5.8094 6.3454 10.588 14.591 11.472-0.36958 0.62705-0.66085 1.2537-0.66085 1.912 1e-5 4.244 8.0118 7.9414 19.797 9.8318" fill="none" stroke-linecap="round" stroke-linejoin="round" stroke-miterlimit=".5" stroke-width="6.154"/>
  <path d="m338.14 223.91c-8.2505 7.27 1.4368 13.469 5.1203 3.4862l2.8325-9.2602-7.9529 5.774z" fill="#6798e9" stroke-miterlimit="3.2" stroke-width="4"/>
  <path d="m367.18 225.11c-8.2505 7.27 1.4368 13.469 5.1203 3.4862l2.8325-9.2602-7.9529 5.774z" fill="#6798e9" stroke-miterlimit="3.2" stroke-width="4"/>
  <path d="m360.42 209.77c-8.2505 7.27 1.4368 13.469 5.1203 3.4862l2.8325-9.2602-7.9529 5.774z" fill="#6798e9" stroke-miterlimit="3.2" stroke-width="4"/>
 </g>
 <g transform="translate(-.95256 20.524)">
  <path d="m510.21 208.67c15.431-1.4 26.665-5.6589 26.665-10.684 0-0.41459-0.274-0.79889-0.42293-1.2018 0.9113 0.22661 1.8295 0.46433 2.8284 0.46433 5.5658 0 10.071-3.7843 10.071-8.44s-4.5054-8.4127-10.071-8.4127c-0.68208 0-1.2855 0.21962-1.9297 0.32777 0.56328-1.8616 0.95161-3.7704 0.95161-5.7905 0-12.324-11.171-22.343-24.954-22.343h-1e-5c-9.7652 0-18.128 5.0897-22.231 12.4-1.6386-0.91482-3.4636-1.4749-5.3925-1.4749-5.8332-1e-5 -10.686 4.6921-12.186 11.062-2.5608-1.0122-5.5163-1.6388-8.6967-1.6388-9.5414 0-17.288 5.2272-17.288 11.663 0 5.8094 6.3454 10.588 14.591 11.472-0.36958 0.62705-0.66085 1.2537-0.66085 1.912 1e-5 4.244 8.0118 7.9414 19.797 9.8318" fill="none" stroke="#6798e9" stroke-linecap="round" stroke-linejoin="round" stroke-miterlimit=".5" stroke-width="6.154"/>
  <path d="m470.04 225.35c-8.2505 7.27 1.4368 13.469 5.1203 3.4862l2.8325-9.2602-7.9529 5.774z" fill="#6798e9" stroke="#6798e9" stroke-miterlimit="3.2" stroke-width="4"/>
  <path d="m499.09 226.55c-8.2505 7.27 1.4368 13.469 5.1203 3.4862l2.8325-9.2602-7.9529 5.774z" fill="#6798e9" stroke="#6798e9" stroke-miterlimit="3.2" stroke-width="4"/>
  <path d="m492.32 211.21c-8.2505 7.27 1.4368 13.469 5.1203 3.4862l2.8325-9.2602-7.9529 5.774z" fill="#6798e9" stroke="#6798e9" stroke-miterlimit="3.2" stroke-width="4"/>
  <path d="m510.21 208.67c15.431-1.4 26.665-5.6589 26.665-10.684 0-0.41459-0.274-0.79889-0.42293-1.2018 0.9113 0.22661 1.8295 0.46433 2.8284 0.46433 5.5658 0 10.071-3.7843 10.071-8.44s-4.5054-8.4127-10.071-8.4127c-0.68208 0-1.2855 0.21962-1.9297 0.32777 0.56328-1.8616 0.95161-3.7704 0.95161-5.7905 0-12.324-11.171-22.343-24.954-22.343h-1e-5c-9.7652 0-18.128 5.0897-22.231 12.4-1.6386-0.91482-3.4636-1.4749-5.3925-1.4749-5.8332-1e-5 -10.686 4.6921-12.186 11.062-2.5608-1.0122-5.5163-1.6388-8.6967-1.6388-9.5414 0-17.288 5.2272-17.288 11.663 0 5.8094 6.3454 10.588 14.591 11.472-0.36958 0.62705-0.66085 1.2537-0.66085 1.912 1e-5 4.244 8.0118 7.9414 19.797 9.8318" fill="none" stroke="#6798e9" stroke-linecap="round" stroke-linejoin="round" stroke-miterlimit=".5" stroke-width="6.154"/>
  <path d="m470.04 225.35c-8.2505 7.27 1.4368 13.469 5.1203 3.4862l2.8325-9.2602-7.9529 5.774z" fill="#6798e9" stroke="#6798e9" stroke-miterlimit="3.2" stroke-width="4"/>
  <path d="m499.09 226.55c-8.2505 7.27 1.4368 13.469 5.1203 3.4862l2.8325-9.2602-7.9529 5.774z" fill="#6798e9" stroke="#6798e9" stroke-miterlimit="3.2" stroke-width="4"/>
  <path d="m492.32 211.21c-8.2505 7.27 1.4368 13.469 5.1203 3.4862l2.8325-9.2602-7.9529 5.774z" fill="#6798e9" stroke="#6798e9" stroke-miterlimit="3.2" stroke-width="4"/>
  <path d="m511.42 157.95-20.042 12.709 19.795 4.366-18.296 13.644-7.3868-2.304 5.2392 13.151 20.821-5.7378-8.791-2.3984 23.872-19.597-21.821-3.5518 21.072-13.243-12.02-1.9883 13.091-8.4164-4.8093-0.12095-20.315 11.546 9.592 1.9411z" fill="#f5ff12" stroke="#f5ff12" stroke-linecap="round" stroke-miterlimit=".5" stroke-width=".5"/>
 </g>
 <g transform="translate(1.6022 16.74)">
  <path d="m679.99 181.63c-1.2956 0.01313 0.51411-0.47804-2.7884-0.40816-1.4953 0.03164-3.7548 0.63454-5.6532 1.2663-1.9473 0.6481-5.301 1.9282-7.5453 2.4948-4.5976 1.1608-2.0678 0.61022-8.9322 1.6953-7.1152 1.1247-8.7189 1.2703-10.303 1.1982-1.5162-0.06898-5.2672 0.39453-8.7929-0.0778-3.1598-0.42332-4.3712-0.10644-5.1017 0.39862s-1.1588 1.4204-1.1168 2.387 0.54742 1.8302 1.3181 2.2521c0.71853 0.43392 1.815 1.1077 3.6384 1.7199 4.6468 1.5602 11.484 2.6336 19.072 2.6336s14.425-1.0734 19.072-2.6336c1.9404-0.6515 3.1664-1.3744 3.9237-1.8543 0.64863-0.40456 1.0896-1.1321 1.189-1.9618 0.21318-1.8332 1.3234-3.3453 2.8774-3.9236 1.1791-0.35977 1.9156-1.6833 1.6916-3.0401s-1.3272-2.2278-2.5477-2.1465z" fill="#fff"/>
  <g transform="matrix(.91614 0 0 .91614 324.66 36.882)" stroke-linecap="round" stroke-linejoin="round" stroke-miterlimit=".5">
   <path d="m333.03 123.39c-9.7653 0-18.128 5.0897-22.231 12.4-1.6386-0.91482-3.4636-1.4749-5.3925-1.4749-5.8332 0-10.686 4.6921-12.186 11.062-2.5608-1.0122-5.5163-1.6388-8.6967-1.6388-9.5414 0-17.288 5.2272-17.288 11.663 0 5.8094 6.3454 10.588 14.591 11.472-0.36958 0.62706-0.66085 1.2537-0.66085 1.912 0 6.1619 16.889 11.171 37.695 11.171s37.695-5.0094 37.695-11.171c0-0.41459-0.274-0.79889-0.42293-1.2018 0.91129 0.22662 1.8295 0.46433 2.8284 0.46433 5.5658 0 10.071-3.7843 10.071-8.44s-4.5054-8.4127-10.071-8.4127c-0.68208 0-1.2855 0.21962-1.9297 0.32777 0.56329-1.8616 0.95161-3.7704 0.95161-5.7905 0-12.324-11.171-22.343-24.954-22.343z" fill="#fff" stroke="#6798e9" stroke-width="6.7173"/>
   <path d="m364.84 125.17c-8.9566 0-16.627 5.1003-20.39 12.426-1.5029-0.91673-3.1767-1.478-4.9459-1.478-5.3501 0-9.8008 4.702-11.177 11.085-2.3487-1.0143-5.0594-1.6423-7.9765-1.6423-8.7513 0-15.856 5.2382-15.856 11.687 0 5.8216 5.8199 10.611 13.383 11.496-0.33896 0.62838-0.60611 1.2564-0.60611 1.916 0 6.1748 15.49 11.195 34.573 11.195s34.573-5.02 34.573-11.195c0-0.41546-0.25133-0.80058-0.38793-1.2043 0.83584 0.22708 1.678 0.4653 2.5942 0.4653 5.1049 0 9.2372-3.7922 9.2372-8.4577s-4.1323-8.4303-9.2372-8.4303c-0.62559 0-1.179 0.22007-1.7699 0.32846 0.51663-1.8655 0.87281-3.7783 0.87281-5.8027 0-12.35-10.246-22.39-22.887-22.39z" fill="#6798e9" stroke="#6798e9" stroke-width="6.7173"/>
   <path d="m328.55 163.27c-4.988 0-9.2597 2.5409-11.355 6.1906-0.837-0.4567-1.7692-0.73632-2.7544-0.73632-2.9796 0-5.4582 2.3424-6.2245 5.5225-1.308-0.5053-2.8177-0.81815-4.4422-0.81815-4.8737 0-8.8304 2.6096-8.8304 5.8224 0 2.9002 3.2412 5.286 7.4532 5.727-0.18878 0.31305-0.33756 0.62589-0.33756 0.9545 0 3.0762 8.6268 5.577 19.254 5.577s19.254-2.5008 19.254-5.577c0-0.20697-0.13997-0.39883-0.21604-0.59997 0.46549 0.11315 0.93451 0.23181 1.4447 0.23181 2.843 0 5.1443-1.8892 5.1443-4.2134s-2.3014-4.1998-5.1443-4.1998c-0.34841 0-0.65661 0.10963-0.98566 0.16362 0.28772-0.92934 0.48608-1.8822 0.48608-2.8908 0-6.1524-5.7063-11.154-12.746-11.154z" fill="#386195" stroke="#386195" stroke-width="6.7173"/>
  </g>
  <path d="m633.67 165.36-20.042 12.709 19.795 4.366-18.296 13.644-7.3868-2.304 5.2392 13.151 20.821-5.7378-8.791-2.3984 23.872-19.597-21.821-3.5518 21.072-13.243-12.02-1.9883 13.091-8.4164-4.8093-0.12095-20.315 11.546 9.592 1.9411z" fill="#f5ff12" stroke="#f5ff12" stroke-linecap="round" stroke-miterlimit=".5" stroke-width=".5"/>
  <path d="m596 230.29c-8.2505 7.27 1.4368 13.469 5.1203 3.4862l2.8325-9.2602-7.9529 5.774z" fill="#6798e9" stroke="#6798e9" stroke-miterlimit="3.2" stroke-width="4"/>
  <path d="m625.05 231.49c-8.2505 7.27 1.4368 13.469 5.1203 3.4862l2.8325-9.2602-7.9529 5.774z" fill="#6798e9" stroke="#6798e9" stroke-miterlimit="3.2" stroke-width="4"/>
  <path d="m618.28 216.14c-8.2505 7.27 1.4368 13.469 5.1203 3.4862l2.8325-9.2602-7.9529 5.774z" fill="#6798e9" stroke="#6798e9" stroke-miterlimit="3.2" stroke-width="4"/>
  <path d="m596 230.29c-8.2505 7.27 1.4368 13.469 5.1203 3.4862l2.8325-9.2602-7.9529 5.774z" fill="#6798e9" stroke="#6798e9" stroke-miterlimit="3.2" stroke-width="4"/>
  <path d="m625.05 231.49c-8.2505 7.27 1.4368 13.469 5.1203 3.4862l2.8325-9.2602-7.9529 5.774z" fill="#6798e9" stroke="#6798e9" stroke-miterlimit="3.2" stroke-width="4"/>
  <path d="m618.28 216.14c-8.2505 7.27 1.4368 13.469 5.1203 3.4862l2.8325-9.2602-7.9529 5.774z" fill="#6798e9" stroke="#6798e9" stroke-miterlimit="3.2" stroke-width="4"/>
 </g>
 <g transform="translate(9.6134 44.541)">
  <path d="m110.21 307.58c8.5437-2.0539 14.009-5.192 14.009-8.698 0-0.4146-0.25732-0.78459-0.40625-1.1875 0.91129 0.22661 1.8136 0.46875 2.8125 0.46875 5.5658 0 10.094-3.7818 10.094-8.4375s-4.5279-8.4375-10.094-8.4375c-0.68208-1e-5 -1.2621 0.2356-1.9062 0.34375 0.56329-1.8616 0.9375-3.7611 0.9375-5.7812 0-12.324-11.155-22.344-24.938-22.344-9.7653 0-18.147 5.0642-22.25 12.375-1.6386-0.91484-3.4461-1.4688-5.375-1.4688-5.8332-1e-5 -10.687 4.6925-12.188 11.062-2.5608-1.0122-5.5383-1.625-8.7188-1.625-9.5414-1e-5 -17.281 5.2205-17.281 11.656 0 5.8094 6.3477 10.585 14.594 11.469-0.36958 0.62705-0.65625 1.248-0.65625 1.9062 0 2.8611 3.6397 5.4773 9.6219 7.4591" fill="none" stroke="#6798e9" stroke-linecap="round" stroke-linejoin="round" stroke-miterlimit=".5" stroke-width="6.154"/>
  <path d="m110.1 307.61 0.11862-0.0284" fill="none" stroke="#6798e9" stroke-linecap="round" stroke-linejoin="round" stroke-miterlimit=".5" stroke-width="6.154"/>
  <path d="m58.47 306.35 0.12718 0.04193" fill="none" stroke="#6798e9" stroke-linecap="round" stroke-linejoin="round" stroke-miterlimit=".5" stroke-width="6.154"/>
  <path transform="matrix(.47721 0 0 .47721 -3.2359 128)" d="m138.99 349.22c0.65368-2.2394 16.597 3.4479 17.882 1.5008 1.2747-1.9315-10.41-14.182-8.5791-15.598 1.8451-1.4275 11.401 12.545 13.585 11.725 2.1666-0.81341-0.08554-17.592 2.2276-17.662 2.3318-0.07034 1.8497 16.85 4.0986 17.471 2.2309 0.61541 10.271-14.282 12.183-12.979 1.9278 1.3137-8.408 14.72-6.9533 16.543 1.4431 1.8092 16.704-5.5176 17.486-3.3392 0.78746 2.196-15.454 6.9663-15.349 9.2968 0.10409 2.3119 16.757 5.3549 16.109 7.5764-0.65367 2.2394-16.597-3.4479-17.882-1.5008-1.2747 1.9315 10.41 14.182 8.5791 15.598-1.8451 1.4275-11.401-12.545-13.585-11.725-2.1666 0.8134 0.08554 17.592-2.2276 17.662-2.3318 0.07034-1.8497-16.85-4.0986-17.471-2.2309-0.61541-10.271 14.282-12.183 12.979-1.9278-1.3137 8.408-14.72 6.9533-16.543-1.4431-1.8092-16.704 5.5176-17.486 3.3392-0.78746-2.196 15.454-6.9663 15.349-9.2968-0.10409-2.3119-16.757-5.3549-16.109-7.5764z" fill="#9e9e9e" stroke="#a6a6a6" stroke-linecap="round" stroke-miterlimit=".5" stroke-width=".28064"/>
  <path d="m96.126 297.2c-8.2505 7.27 1.4368 13.469 5.1203 3.4862l2.8325-9.2602-7.9528 5.774z" fill="#6798e9" stroke="#6798e9" stroke-miterlimit="3.2" stroke-width="4"/>
  <path d="m62.968 322.64c-8.2505 7.27 1.4368 13.469 5.1203 3.4862l2.8325-9.2602-7.9528 5.774z" fill="#6798e9" stroke="#6798e9" stroke-miterlimit="3.2" stroke-width="4"/>
  <path transform="matrix(.47721 0 0 .47721 12.662 152.99)" d="m138.99 349.22c0.65368-2.2394 16.597 3.4479 17.882 1.5008 1.2747-1.9315-10.41-14.182-8.5791-15.598 1.8451-1.4275 11.401 12.545 13.585 11.725 2.1666-0.81341-0.08554-17.592 2.2276-17.662 2.3318-0.07034 1.8497 16.85 4.0986 17.471 2.2309 0.61541 10.271-14.282 12.183-12.979 1.9278 1.3137-8.408 14.72-6.9533 16.543 1.4431 1.8092 16.704-5.5176 17.486-3.3392 0.78746 2.196-15.454 6.9663-15.349 9.2968 0.10409 2.3119 16.757 5.3549 16.109 7.5764-0.65367 2.2394-16.597-3.4479-17.882-1.5008-1.2747 1.9315 10.41 14.182 8.5791 15.598-1.8451 1.4275-11.401-12.545-13.585-11.725-2.1666 0.8134 0.08554 17.592-2.2276 17.662-2.3318 0.07034-1.8497-16.85-4.0986-17.471-2.2309-0.61541-10.271 14.282-12.183 12.979-1.9278-1.3137 8.408-14.72 6.9533-16.543-1.4431-1.8092-16.704 5.5176-17.486 3.3392-0.78746-2.196 15.454-6.9663 15.349-9.2968-0.10409-2.3119-16.757-5.3549-16.109-7.5764z" fill="#9e9e9e" stroke="#a6a6a6" stroke-linecap="round" stroke-miterlimit=".5" stroke-width=".28064"/>
 </g>
 <g transform="translate(7.0738 45.499)" stroke-linecap="round" stroke-miterlimit=".5">
  <path d="m248.3 304.86c8.5437-2.0539 14.009-5.192 14.009-8.698 0-0.4146-0.25732-0.78459-0.40625-1.1875 0.91129 0.22661 1.8136 0.46875 2.8125 0.46875 5.5658 0 10.094-3.7818 10.094-8.4375s-4.5279-8.4375-10.094-8.4375c-0.68208-1e-5 -1.2621 0.2356-1.9062 0.34375 0.56329-1.8616 0.9375-3.7611 0.9375-5.7812 0-12.324-11.155-22.344-24.938-22.344-9.7653 0-18.147 5.0642-22.25 12.375-1.6386-0.91484-3.4461-1.4688-5.375-1.4688-5.8332-1e-5 -10.687 4.6925-12.188 11.062-2.5608-1.0122-5.5383-1.625-8.7188-1.625-9.5414-1e-5 -17.281 5.2205-17.281 11.656-1e-5 5.8094 6.3477 10.585 14.594 11.469-0.36958 0.62705-0.65625 1.248-0.65625 1.9062-1e-5 2.8611 3.6397 5.4773 9.6219 7.4591m51.626 1.2673c0.03961-0.00945-7.8938 0.9777-7.8543 0.96821m-43.771-2.2355c0.04227 0.01401 4.7355 1.0246 4.778 1.0385" fill="none" stroke="#6798e9" stroke-linejoin="round" stroke-width="6.154"/>
  <path transform="matrix(.47721 0 0 .47721 141.71 126.65)" d="m138.99 349.22c0.65368-2.2394 16.597 3.4479 17.882 1.5008 1.2747-1.9315-10.41-14.182-8.5791-15.598 1.8451-1.4275 11.401 12.545 13.585 11.725 2.1666-0.81341-0.08554-17.592 2.2276-17.662 2.3318-0.07034 1.8497 16.85 4.0986 17.471 2.2309 0.61541 10.271-14.282 12.183-12.979 1.9278 1.3137-8.408 14.72-6.9533 16.543 1.4431 1.8092 16.704-5.5176 17.486-3.3392 0.78746 2.196-15.454 6.9663-15.349 9.2968 0.10409 2.3119 16.757 5.3549 16.109 7.5764-0.65367 2.2394-16.597-3.4479-17.882-1.5008-1.2747 1.9315 10.41 14.182 8.5791 15.598-1.8451 1.4275-11.401-12.545-13.585-11.725-2.1666 0.8134 0.08554 17.592-2.2276 17.662-2.3318 0.07034-1.8497-16.85-4.0986-17.471-2.2309-0.61541-10.271 14.282-12.183 12.979-1.9278-1.3137 8.408-14.72 6.9533-16.543-1.4431-1.8092-16.704 5.5176-17.486 3.3392-0.78746-2.196 15.454-6.9663 15.349-9.2968-0.10409-2.3119-16.757-5.3549-16.109-7.5764z" fill="#9e9e9e" stroke="#a6a6a6" stroke-width=".28064"/>
  <path transform="matrix(.47721 0 0 .47721 150.96 153.8)" d="m138.99 349.22c0.65368-2.2394 16.597 3.4479 17.882 1.5008 1.2747-1.9315-10.41-14.182-8.5791-15.598 1.8451-1.4275 11.401 12.545 13.585 11.725 2.1666-0.81341-0.08554-17.592 2.2276-17.662 2.3318-0.07034 1.8497 16.85 4.0986 17.471 2.2309 0.61541 10.271-14.282 12.183-12.979 1.9278 1.3137-8.408 14.72-6.9533 16.543 1.4431 1.8092 16.704-5.5176 17.486-3.3392 0.78746 2.196-15.454 6.9663-15.349 9.2968 0.10409 2.3119 16.757 5.3549 16.109 7.5764-0.65367 2.2394-16.597-3.4479-17.882-1.5008-1.2747 1.9315 10.41 14.182 8.5791 15.598-1.8451 1.4275-11.401-12.545-13.585-11.725-2.1666 0.8134 0.08554 17.592-2.2276 17.662-2.3318 0.07034-1.8497-16.85-4.0986-17.471-2.2309-0.61541-10.271 14.282-12.183 12.979-1.9278-1.3137 8.408-14.72 6.9533-16.543-1.4431-1.8092-16.704 5.5176-17.486 3.3392-0.78746-2.196 15.454-6.9663 15.349-9.2968-0.10409-2.3119-16.757-5.3549-16.109-7.5764z" fill="#9e9e9e" stroke="#a6a6a6" stroke-width=".28064"/>
  <path transform="matrix(.47721 0 0 .47721 118.97 153.8)" d="m138.99 349.22c0.65368-2.2394 16.597 3.4479 17.882 1.5008 1.2747-1.9315-10.41-14.182-8.5791-15.598 1.8451-1.4275 11.401 12.545 13.585 11.725 2.1666-0.81341-0.08554-17.592 2.2276-17.662 2.3318-0.07034 1.8497 16.85 4.0986 17.471 2.2309 0.61541 10.271-14.282 12.183-12.979 1.9278 1.3137-8.408 14.72-6.9533 16.543 1.4431 1.8092 16.704-5.5176 17.486-3.3392 0.78746 2.196-15.454 6.9663-15.349 9.2968 0.10409 2.3119 16.757 5.3549 16.109 7.5764-0.65367 2.2394-16.597-3.4479-17.882-1.5008-1.2747 1.9315 10.41 14.182 8.5791 15.598-1.8451 1.4275-11.401-12.545-13.585-11.725-2.1666 0.8134 0.08554 17.592-2.2276 17.662-2.3318 0.07034-1.8497-16.85-4.0986-17.471-2.2309-0.61541-10.271 14.282-12.183 12.979-1.9278-1.3137 8.408-14.72 6.9533-16.543-1.4431-1.8092-16.704 5.5176-17.486 3.3392-0.78746-2.196 15.454-6.9663 15.349-9.2968-0.10409-2.3119-16.757-5.3549-16.109-7.5764z" fill="#9e9e9e" stroke="#a6a6a6" stroke-width=".28064"/>
 </g>
 <g transform="translate(8.4857 46.329)" stroke-linecap="round" stroke-miterlimit=".5">
  <path d="m382.43 306.74c8.5437-2.0539 14.009-5.192 14.009-8.698 0-0.4146-0.25732-0.78459-0.40625-1.1875 0.91129 0.22661 1.8136 0.46875 2.8125 0.46875 5.5658 0 10.094-3.7818 10.094-8.4375s-4.5279-8.4375-10.094-8.4375c-0.68208-1e-5 -1.2621 0.2356-1.9062 0.34375 0.56329-1.8616 0.9375-3.7611 0.9375-5.7812 0-12.324-11.155-22.344-24.938-22.344-9.7653 0-18.147 5.0642-22.25 12.375-1.6386-0.91484-3.4461-1.4688-5.375-1.4688-5.8332-1e-5 -10.687 4.6925-12.188 11.062-2.5608-1.0122-5.5383-1.625-8.7188-1.625-9.5414-1e-5 -17.281 5.2205-17.281 11.656-1e-5 5.8094 6.3477 10.585 14.594 11.469-0.36958 0.62705-0.65625 1.248-0.65625 1.9062-1e-5 2.8611 3.6397 5.4773 9.6219 7.4591m51.626 1.2673c0.03961-0.00945-10.153 0.9777-10.114 0.96821m-41.512-2.2355c0.04227 0.01401 7.5547 1.7025 8.5644 1.6447" fill="none" stroke="#6798e9" stroke-linejoin="round" stroke-width="6.154"/>
  <path transform="matrix(.77419 0 0 .77419 103.25 23.035)" d="m336.74 363.88a10.318 10.318 0 1 1 -20.636 0 10.318 10.318 0 1 1 20.636 0z" fill="#9e9e9e" stroke="#a6a6a6" stroke-width=".17299"/>
  <path transform="matrix(.77419 0 0 .77419 88.247 43.709)" d="m336.74 363.88a10.318 10.318 0 1 1 -20.636 0 10.318 10.318 0 1 1 20.636 0z" fill="#9e9e9e" stroke="#a6a6a6" stroke-width=".17299"/>
 </g>
 <g transform="translate(9.2726 37.42)">
  <path transform="matrix(.64604 0 0 .64604 299.12 226.91)" d="m310.66 132.06c-1.827 2.0443-22.21-18.383-24.893-17.378s-6.7378 33.642-9.5753 34.012-7.7155-33.089-10.481-33.888-18.779 19.342-21.18 17.829 5.6997-26.098 4.3649-28.671-31.863-3.7803-32.492-6.6501 27.669-10.399 27.902-13.242-18.998-18.902-17.897-21.394 26.855 8.1774 28.594 5.9916-3.3918-29.683-0.75169-30.507 18.503 18.485 21.322 18.393 11.303-24.288 14.183-23.722 1.4433 25.668 3.6723 27.344 24.272-6.2829 25.907-4.0049-12.639 24.445-11.78 27.073 27.012 5.1355 26.655 7.8525-32.699 3.8756-34.047 6.5072 12.324 32.411 10.497 34.455z" fill="#f5ff12"/>
  <path transform="matrix(.6331 0 0 .56669 378.73 238.15)" d="m194.52 77.284a39.901 37.407 0 1 1 -79.802 0 39.901 37.407 0 1 1 79.802 0z" fill="#fff" stroke="#f5ff12" stroke-miterlimit=".5" stroke-width="10.274"/>
  <path transform="matrix(.82601 0 0 .86022 409 151.69)" d="m110.53 144.97c-9.7653 0-18.147 5.0642-22.25 12.375-1.6386-0.91483-3.4461-1.4688-5.375-1.4688-5.8332 0-10.687 4.6925-12.188 11.062-2.5608-1.0122-5.5383-1.625-8.7188-1.625-9.5414 0-17.281 5.2205-17.281 11.656 0 5.8094 6.3477 10.585 14.594 11.469-0.36958 0.62706-0.65625 1.248-0.65625 1.9062 0 6.1619 16.882 11.188 37.688 11.188s37.688-5.0256 37.688-11.188c0-0.41459-0.25732-0.78459-0.40625-1.1875 0.91129 0.22662 1.8136 0.46875 2.8125 0.46875 5.5658 1e-5 10.094-3.7818 10.094-8.4375s-4.5279-8.4375-10.094-8.4375c-0.68208 0-1.2621 0.2356-1.9062 0.34375 0.56329-1.8616 0.9375-3.7611 0.9375-5.7812 0-12.324-11.155-22.344-24.938-22.344z" fill="#fff" stroke="#6798e9" stroke-linecap="round" stroke-linejoin="round" stroke-miterlimit=".5" stroke-width="7.3006"/>
  <path d="m526.73 289.57c-4.5698 0-8.4832 2.3278-10.403 5.6715-0.76682-0.4184-1.6208-0.67457-2.5235-0.67457-2.7297 0-5.0005 2.146-5.7026 5.0594-1.1983-0.46293-2.5814-0.74954-4.0697-0.74954-4.465 0-8.09 2.3907-8.09 5.3342 0 2.657 2.9694 4.8427 6.8282 5.2468-0.17295 0.28679-0.30926 0.5734-0.30926 0.87445 0 2.8182 7.9034 5.1093 17.64 5.1093s17.64-2.2911 17.64-5.1093c0-0.18961-0.12823-0.36538-0.19792-0.54965 0.42645 0.10366 0.85614 0.21237 1.3236 0.21237 2.6046 0 4.7129-1.7308 4.7129-3.8601s-2.1084-3.8476-4.7129-3.8476c-0.3192 0-0.60155 0.10044-0.90301 0.1499 0.26359-0.8514 0.44532-1.7244 0.44532-2.6484 0-5.6364-5.2278-10.219-11.677-10.219z" fill="#386195" stroke="#386195" stroke-linecap="round" stroke-linejoin="round" stroke-miterlimit=".5" stroke-width="6.154"/>
  <path d="m472.57 341.3c-8.2505 7.27 1.4368 13.469 5.1203 3.4862l2.8325-9.2602-7.9529 5.774z" fill="#6798e9" stroke="#6798e9" stroke-miterlimit="3.2" stroke-width="4"/>
  <path d="m493.44 342.07c-8.2505 7.27 1.4368 13.469 5.1203 3.4862l2.8325-9.2602-7.9529 5.774z" fill="#6798e9" stroke="#6798e9" stroke-miterlimit="3.2" stroke-width="4"/>
 </g>
 <g transform="translate(1.6022 25.194)" stroke="#6798e9">
  <path d="m110.53 144.97c-9.7653 0-18.147 5.0642-22.25 12.375-1.6386-0.91483-3.4461-1.4688-5.375-1.4688-5.8332 0-10.687 4.6925-12.188 11.062-2.5608-1.0122-5.5383-1.625-8.7188-1.625-9.5414 0-17.281 5.2205-17.281 11.656 0 5.8094 6.3477 10.585 14.594 11.469-0.36958 0.62706-0.65625 1.248-0.65625 1.9062 0 6.1619 16.882 11.188 37.688 11.188s37.688-5.0256 37.688-11.188c0-0.41459-0.25732-0.78459-0.40625-1.1875 0.91129 0.22662 1.8136 0.46875 2.8125 0.46875 5.5658 1e-5 10.094-3.7818 10.094-8.4375s-4.5279-8.4375-10.094-8.4375c-0.68208 0-1.2621 0.2356-1.9062 0.34375 0.56329-1.8616 0.9375-3.7611 0.9375-5.7812 0-12.324-11.155-22.344-24.938-22.344z" fill="#fff" stroke-linecap="round" stroke-linejoin="round" stroke-miterlimit=".5" stroke-width="6.154"/>
  <path d="m83.862 219.53c-8.2505 7.27 1.4368 13.469 5.1203 3.4862l2.8325-9.2602-7.9528 5.774z" fill="#6798e9" stroke-miterlimit="3.2" stroke-width="4"/>
  <path d="m110.53 144.97c-9.7653 0-18.147 5.0642-22.25 12.375-1.6386-0.91483-3.4461-1.4688-5.375-1.4688-5.8332 0-10.687 4.6925-12.188 11.062-2.5608-1.0122-5.5383-1.625-8.7188-1.625-9.5414 0-17.281 5.2205-17.281 11.656 0 5.8094 6.3477 10.585 14.594 11.469-0.36958 0.62706-0.65625 1.248-0.65625 1.9062 0 6.1619 16.882 11.188 37.688 11.188s37.688-5.0256 37.688-11.188c0-0.41459-0.25732-0.78459-0.40625-1.1875 0.91129 0.22662 1.8136 0.46875 2.8125 0.46875 5.5658 1e-5 10.094-3.7818 10.094-8.4375s-4.5279-8.4375-10.094-8.4375c-0.68208 0-1.2621 0.2356-1.9062 0.34375 0.56329-1.8616 0.9375-3.7611 0.9375-5.7812 0-12.324-11.155-22.344-24.938-22.344z" fill="#fff" stroke-linecap="round" stroke-linejoin="round" stroke-miterlimit=".5" stroke-width="6.154"/>
 </g>
 <path d="m652.5 297.22c-9.7653 0-18.128 5.0897-22.231 12.4-1.6386-0.91482-3.4636-1.4749-5.3925-1.4749-5.8332 0-10.686 4.6921-12.186 11.062-2.5608-1.0122-5.5163-1.6388-8.6967-1.6388-9.5414 0-17.288 5.2272-17.288 11.663 0 5.8094 6.3454 10.588 14.591 11.472-0.36958 0.62706-0.66085 1.2537-0.66085 1.912 0 6.1619 16.889 11.171 37.695 11.171s37.695-5.0094 37.695-11.171c0-0.41459-0.274-0.79889-0.42293-1.2018 0.91129 0.22662 1.8295 0.46433 2.8284 0.46433 5.5658 0 10.071-3.7843 10.071-8.44s-4.5054-8.4127-10.071-8.4127c-0.68208 0-1.2855 0.21962-1.9297 0.32777 0.56329-1.8616 0.95161-3.7704 0.95161-5.7905 0-12.324-11.171-22.343-24.954-22.343z" fill="#fff" stroke="#6798e9" stroke-linecap="round" stroke-linejoin="round" stroke-miterlimit=".5" stroke-width="6.154"/>
 <path d="m639.98 366.11c1.7085-1.551 3.6793-3.4582 6.7973-3.2662 3.2709-0.00248 4.8404 0.34241 8.0363 1.3375s6.4477 2.6531 8.8879 2.0575c2.5425-0.62053 5.3465-2.9525 6.4681-4.3831 1.6418 0.50043-0.44774 2.5924-0.93692 3.4734-1.53 2.2949-2.9251 3.8497-5.1587 4.5013-2.4396 0.82962-5.333 0.47733-7.756-0.03136-2.7375-0.64973-5.4044-1.7803-8.1282-2.5113-3.0208-0.64463-7.3768 0.88147-8.5517 1.4337-1.2205 0.57365-3.6183 3.1662-3.1666 1.0785 1.1626-1.0977 1.7769-2.1181 3.5086-3.6902z" fill="#9e9e9e" stroke="#9e9e9e"/>
 <path d="m604.6 364.95c1.7084-1.551 3.6793-3.4582 6.7973-3.2662 3.2709-0.0025 4.8404 0.3424 8.0363 1.3375s6.4477 2.6531 8.8879 2.0576c2.5425-0.62053 5.3465-2.9525 6.4681-4.3831 1.6418 0.50043-0.44774 2.5924-0.93692 3.4734-1.53 2.2949-2.9251 3.8497-5.1587 4.5013-2.4396 0.82962-5.333 0.47732-7.756-0.03135-2.7375-0.64974-5.4044-1.7803-8.1282-2.5113-3.0208-0.64463-7.3768 0.88146-8.5517 1.4337-1.2205 0.57366-3.6183 3.1662-3.1666 1.0785 1.1626-1.0977 1.7769-2.1181 3.5086-3.6902z" fill="#9e9e9e" stroke="#9e9e9e"/>
 <path d="m619.46 376.59c1.7085-1.551 3.6793-3.4582 6.7973-3.2662 3.2709-0.00248 4.8404 0.34242 8.0363 1.3375s6.4477 2.6531 8.8879 2.0575c2.5425-0.62053 5.3465-2.9525 6.4681-4.3831 1.6418 0.50044-0.44773 2.5924-0.93692 3.4734-1.53 2.2949-2.9251 3.8497-5.1587 4.5013-2.4396 0.82962-5.333 0.47731-7.756-0.03136-2.7375-0.64973-5.4044-1.7803-8.1282-2.5113-3.0208-0.64463-7.3768 0.88147-8.5517 1.4337-1.2205 0.57365-3.6183 3.1662-3.1666 1.0785 1.1626-1.0977 1.7769-2.1181 3.5086-3.6902z" fill="#9e9e9e" stroke="#9e9e9e"/>
</svg>
